<?xml version="1.0" encoding="UTF-8"?>
<!DOCTYPE svg  PUBLIC '-//W3C//DTD SVG 1.1//EN'  'http://www.w3.org/Graphics/SVG/1.1/DTD/svg11.dtd'>
<svg enable-background="new 0 0 360 40" version="1.1" viewBox="0 0 360 40" xml:space="preserve" xmlns="http://www.w3.org/2000/svg">
<path d="m356 0h-352c-2.2 0-4 1.8-4 4v36h360v-36c0-2.2-1.8-4-4-4zm-333.01 27c-3.866 0-7-3.134-7-7s3.134-7 7-7 7 3.134 7 7-3.134 7-7 7zm23.011 0c-3.866 0-7-3.134-7-7s3.134-7 7-7 7 3.134 7 7-3.134 7-7 7zm23.011 0c-3.866 0-7-3.134-7-7s3.134-7 7-7 7 3.134 7 7-3.134 7-7 7z" fill="#4D4D4D"/>
</svg>
